<svg width="1279" height="570" viewBox="0 0 1279 570" fill="none" xmlns="http://www.w3.org/2000/svg">
<rect width="1279" height="537" fill="#BDD59A"/>
<mask id="mask0_0_1" style="mask-type:alpha" maskUnits="userSpaceOnUse" x="0" y="0" width="1279" height="537">
<rect width="1279" height="537" fill="#BDD59A"/>
</mask>
<g mask="url(#mask0_0_1)">
<path d="M1126.05 402.539C1130.56 408.033 1137.73 409.066 1140.76 408.896C1143.04 412.432 1146.69 419.01 1142.98 417.039C1139.26 415.068 1128.7 414.387 1123.89 414.294C1107.84 415.764 1112.74 430.724 1119.54 434.274C1124.98 437.114 1139.84 431.023 1146.59 427.622L1150.44 450.383C1151.99 451.204 1153.81 452.386 1148.69 450.543C1142.3 448.24 1118.37 444.012 1118.81 458.418C1119.16 469.942 1126.93 473.228 1131.6 472.8C1142.21 471.828 1148.83 468.08 1151.76 464.709C1153.09 471.756 1155.3 485.379 1153.48 483.491C1151.2 481.131 1141.83 478.459 1129.87 479.555C1120.3 480.432 1114.09 487.245 1115.95 491.424C1129.46 510.41 1150.3 496.944 1152.92 496.704C1155.02 496.511 1153.41 511.64 1152.34 519.229C1151.34 517.929 1146.94 514.972 1137.4 513.535C1125.46 511.74 1118.61 519.703 1121.87 530.367C1124.39 538.628 1141.78 536.782 1151.08 534.432L1144.08 586.437L1153.39 582.053L1158.09 533.79C1169.79 542.669 1179.45 538.895 1181.46 538.39C1183.48 537.884 1192.99 532.518 1184.61 521.408C1176.24 510.297 1154.26 520.978 1156.72 518.828C1158.68 517.107 1159.09 502.987 1159.05 496.142C1184.06 502.518 1190.83 489.699 1192.99 484.365C1195.15 479.031 1184.68 473.891 1177.73 475.17C1172.17 476.192 1162.16 480.876 1157.86 483.09L1156.13 464.308C1158.54 464.836 1165.99 465.203 1176.56 462.436C1187.14 459.669 1188.05 452.93 1187.19 449.906C1186.56 446.325 1182.77 439.652 1172.6 441.612C1162.42 443.572 1156.68 449.919 1155.08 452.847L1150.12 424.41C1168.01 426.88 1172.27 418.743 1172.16 414.365C1172.68 411.535 1171.95 405.074 1164.83 401.875C1157.71 398.675 1149.94 407.412 1146.94 412.181L1143.73 406.055C1146.98 404.045 1153.02 397.5 1151.15 387.399C1148.81 374.772 1137.2 370.057 1128.27 372.16C1121.12 373.841 1119.63 381.726 1119.78 385.458C1118.68 391.465 1123.5 399.348 1126.05 402.539Z" fill="#61B379"/>
</g>
<path d="M1097.19 419.998C1095.94 425.619 1090.74 429.693 1088.3 431.027C1087.97 434.352 1087.85 440.247 1089.95 437.231C1092.04 434.216 1100.03 428.753 1103.77 426.398C1116.97 419.677 1119.35 431.469 1115.49 436.954C1112.41 441.343 1098.22 444.577 1091.51 445.645L1097.96 461.867C1097.09 463.124 1096.16 464.736 1099.4 461.134C1103.45 456.632 1120.46 442.553 1126.11 451.866C1130.63 459.318 1125.9 465.101 1122.06 467.056C1113.34 471.498 1106.59 472.283 1102.89 471.548C1104.78 476.637 1108.71 486.301 1109.35 484.24C1110.16 481.663 1116.39 475.509 1126.23 470.498C1134.1 466.49 1141.8 467.84 1142.08 471.365C1139.38 489.805 1117.44 491.227 1115.28 492.327C1113.56 493.206 1121.12 501.999 1125.11 506.285C1125.36 504.986 1127.57 501.024 1134.46 495.564C1143.07 488.74 1151.75 490.51 1153.64 498.802C1155.1 505.226 1140.69 512.348 1132.42 515.296L1159.55 544.827L1150.43 546.493L1126.66 518.229C1121.18 529.419 1112.04 531.638 1110.25 532.279C1108.46 532.919 1098.76 534.062 1100.71 523.048C1102.66 512.033 1124.33 508.309 1121.51 508.118C1119.26 507.966 1113.06 499.238 1110.24 494.893C1093.29 510.844 1082.64 505.969 1078.73 503.627C1074.82 501.285 1080.9 493.043 1086.87 490.54C1091.66 488.538 1101.45 486.728 1105.75 486.073L1099.29 473.381C1097.63 474.86 1091.94 478.643 1082.49 481.935C1073.05 485.228 1069.53 481.403 1068.95 479.079C1067.95 476.519 1068.14 470.495 1076.94 466.882C1085.74 463.269 1092.88 464.546 1095.35 465.637L1087.4 445.298C1074.41 455.384 1067.69 452.27 1065.95 449.452C1064.36 447.914 1062.24 443.483 1066.5 438.066C1070.75 432.649 1080.48 434.467 1084.81 436.053L1084.78 430.651C1081.4 430.929 1073.94 429.667 1071.21 422.392C1067.78 413.299 1074.93 404.783 1082.81 401.855C1089.11 399.512 1093.56 403.783 1095 406.211C1098.36 409.485 1097.86 416.767 1097.19 419.998Z" fill="#F3DEE5"/>
<mask id="mask1_0_1" style="mask-type:alpha" maskUnits="userSpaceOnUse" x="0" y="0" width="1279" height="537">
<rect width="1279" height="537" fill="#BDD59A"/>
</mask>
<g mask="url(#mask1_0_1)">
<path d="M60.9657 491.134C77.8386 503.569 84.3239 559.211 93.6672 564.217C98.0035 568.722 119.361 563.441 131.281 562.021C154.866 559.211 179.243 548.315 189.867 540.46C201.491 528.426 228.144 521.072 240.017 518.899C262.514 519.701 272.201 513.551 274.232 510.375C291.479 491.522 271.732 477.448 259.702 472.769C230.175 460.233 192.211 489.817 183.774 501.349C177.025 510.575 152.216 522.576 140.654 527.423C135.405 530.632 119.095 534.777 111.596 536.449L134.561 510.375C143.935 502.854 170.651 446.193 168.776 405.579C167.276 373.087 149.403 370.981 140.654 373.989C116.283 382.513 112.064 428.142 113.47 446.193C114.595 460.634 108.002 491.655 104.565 505.361C103.472 513.383 100.655 529.93 98.0035 529.93C96.4702 529.93 96.9373 527.675 98.0035 525.417C103.01 491.822 77.7441 459.565 68.6827 446.193C59.5642 436.071 40.0925 420.133 24.4189 408.086C-2.08978 383.516 0.253693 383.028 -13.5451 383.516C-32.6678 388.33 -33.0626 405.686 -31.3554 418.114C-28.8052 436.68 -9.79559 451.542 0.046936 455.72C25.9284 463.603 50.6881 482.124 60.9657 491.134Z" fill="#61B379"/>
<path d="M53.4909 464.604C78.1572 482.624 88.3725 510.155 90.3969 521.668C90.7706 524.071 91.1755 523.003 91.3312 522.169C92.2655 504.649 84.3237 492.636 79.6521 482.624C74.9805 472.613 51.6223 452.59 49.7536 451.589C47.8849 450.588 28.2641 436.071 24.0596 434.57C19.8551 433.068 -0.232971 415.548 -1.16731 414.047C-2.10164 412.545 -13.3136 402.033 -4.43744 414.047C-3.52048 415.288 6.77449 427.061 7.70882 428.563C8.64314 430.065 22.6581 442.078 53.4909 464.604Z" fill="#A5D7A2"/>
<path d="M135.245 428.563C135.618 425.359 138.048 415.381 138.982 412.545C142.252 453.091 132.909 473.614 131.507 480.622C130.106 487.63 121.697 508.654 113.755 518.164C105.813 527.675 106.748 525.172 107.682 522.169C108.429 519.766 110.952 516.162 113.755 507.152C121.697 495.138 127.714 471.235 128.704 464.604C130.573 452.09 134.778 432.567 135.245 428.563Z" fill="#A5D7A2"/>
<path d="M199.246 511.157C202.983 509.154 224.473 499.31 235.218 496.14C231.013 496.14 227.743 494.137 217.466 496.14C207.188 498.142 191.205 507.012 183.83 513.159C175.421 520.167 177.289 522.169 140.851 539.689C137.917 541.099 118.427 547.698 110.952 550.201C111.7 551.803 116.87 550.868 119.361 550.201C152.063 544.695 186.166 518.164 199.246 511.157Z" fill="#A5D7A2"/>
</g>
<mask id="mask2_0_1" style="mask-type:alpha" maskUnits="userSpaceOnUse" x="0" y="0" width="1279" height="537">
<rect width="1279" height="537" fill="#BDD59A"/>
</mask>
<g mask="url(#mask2_0_1)">
<path d="M933.447 -36.2223C932.556 -28.4155 937.095 -22.4387 939.476 -20.4261C938.446 -15.8391 936.076 -7.73852 934.837 -12.0322C933.599 -16.3258 926.273 -24.4162 922.764 -27.9246C909.692 -38.1272 901.786 -22.117 904.101 -14.3027C905.953 -8.05128 921.709 -2.56201 929.356 -0.598811L914.644 21.1905C915.16 22.9795 915.597 25.2616 913.218 20.0775C910.244 13.5975 895.713 -6.98607 884.914 5.38015C876.275 15.2731 879.52 23.5614 883.323 26.5295C891.962 33.2722 899.777 34.8487 904.558 34.1132C900.107 40.9596 891.23 53.9331 891.334 51.0564C891.463 47.4605 886.561 38.5511 876.816 30.9455C869.021 24.8611 859.146 26.1442 857.299 30.9616C852.685 56.4735 878.579 60.0479 880.718 61.7174C882.429 63.053 869.545 74.5622 862.89 80.1499C863.148 78.349 862.166 72.7462 856.175 64.7426C848.685 54.738 837.444 56.525 831.631 67.7677C827.128 76.4777 841.485 87.3197 850.216 91.9774L804.847 130.505L815.156 133.467L855.92 96.4295C857.766 112.195 867.864 115.918 869.752 116.929C871.64 117.941 882.858 120.227 885.21 104.964C887.561 89.7014 862.971 82.9859 866.455 82.9324C869.242 82.8896 880.452 71.3682 885.709 65.6129C899.384 88.7631 914.319 82.8592 920.044 79.9339C925.769 77.0087 921.947 65.2454 915.794 61.3677C910.872 58.2656 899.813 55.0559 894.899 53.8389L908.123 36.8958C909.501 39.0498 914.758 44.6626 924.76 49.8809C934.761 55.0991 940.644 50.1097 942.336 46.9627C944.638 43.5226 946.972 35.2397 937.889 29.629C928.806 24.0183 919.639 25.2436 916.192 26.5576L934.463 -0.771857C945.854 14.034 955.303 10.2571 958.604 6.51795C961.181 4.52381 965.627 -1.40192 962.803 -9.1516C959.979 -16.9013 947.451 -15.1263 941.54 -13.2701L943.884 -20.683C947.852 -20.0504 957.392 -21.231 963.803 -31.0141C971.818 -43.2429 966.821 -55.4611 958.557 -60.0629C951.945 -63.7444 944.746 -58.2114 941.972 -54.9848C936.517 -50.7396 934.016 -40.7077 933.447 -36.2223Z" fill="#61B379"/>
</g>
<mask id="mask3_0_1" style="mask-type:alpha" maskUnits="userSpaceOnUse" x="0" y="0" width="1279" height="537">
<rect width="1279" height="537" fill="#BDD59A"/>
</mask>
<g mask="url(#mask3_0_1)">
<path d="M955.195 -48.0646C957.289 -42.7298 962.789 -39.8671 965.276 -39.1027C966.129 -35.8496 967.224 -29.9759 964.782 -32.5056C962.341 -35.0353 954.016 -38.6337 950.159 -40.1167C936.801 -43.758 936.562 -31.3954 941.051 -26.8058C944.642 -23.1342 958.336 -23.2158 964.735 -23.7156L961.462 -5.96616C962.479 -4.91213 963.612 -3.51592 960.004 -6.36338C955.496 -9.92271 937.38 -20.0392 933.695 -9.39264C930.747 -0.875417 936.098 3.80778 939.984 4.86706C948.812 7.27353 955.199 6.48044 958.505 4.87899C957.605 10.4159 955.569 21.0114 954.629 19.0982C953.455 16.7067 946.648 12.0033 936.691 9.28894C928.725 7.11742 921.812 10.2701 922.137 13.8656C927.712 31.697 948.293 27.9863 950.478 28.5821C952.227 29.0588 946.684 39.6303 943.694 44.8565C943.25 43.6135 940.537 40.1642 933.239 36.3104C924.115 31.4931 916.361 35.2964 915.999 44.0386C915.718 50.8115 930.261 54.5718 938.42 55.5878L918.194 91.5001L926.931 91.0338L944.249 57.1767C951.199 67.0974 960.047 67.1793 961.813 67.4018C963.579 67.6242 972.756 66.5011 969.115 55.9289C965.474 45.3566 944.757 46.6997 947.337 45.8496C949.401 45.1694 953.691 34.9814 955.579 29.9724C973.963 41.9745 983.017 34.6039 986.254 31.3437C989.491 28.0835 982.481 21.2535 976.521 20.1465C971.753 19.261 962.368 19.7407 958.272 20.0913L962.148 5.87207C963.938 6.96404 969.844 9.41969 979.149 10.5064C988.454 11.5931 991.079 6.9406 991.229 4.47849C991.73 1.68091 990.544 -4.30404 981.785 -5.86324C973.026 -7.42245 966.621 -4.47345 964.513 -2.80406L968.483 -25.024C982.214 -17.9669 987.928 -22.6576 989.069 -25.8851C990.286 -27.7972 991.509 -32.7285 986.663 -37.1565C981.816 -41.5845 973.098 -37.4882 969.345 -34.8866L968.473 -40.3025C971.657 -40.8154 978.356 -43.8223 979.681 -51.7463C981.338 -61.6513 973.291 -68.5051 965.5 -69.5934C959.266 -70.4641 955.851 -65.1466 954.923 -62.3791C952.354 -58.3154 954.034 -51.1429 955.195 -48.0646Z" fill="#F3DEE5"/>
</g>
<mask id="mask4_0_1" style="mask-type:alpha" maskUnits="userSpaceOnUse" x="0" y="0" width="1279" height="537">
<rect width="1279" height="537" fill="#BDD59A"/>
</mask>
<g mask="url(#mask4_0_1)">
<path d="M1365.7 223.067C1365.7 208.926 1343.51 187.278 1333.62 178.544C1330.62 177.789 1323 170.148 1293.15 167.3C1269.27 165.023 1245.8 186.727 1237.05 197.864C1251.19 199.87 1280.58 217.159 1280.46 217.648C1280.36 218.039 1271.95 216.023 1267.76 214.966C1247.25 211.458 1226.8 217.462 1219.14 220.903C1205.96 226.728 1194.5 240.337 1190.42 246.414C1214.95 252.182 1227.74 262.581 1231.06 267.06C1227.82 267.282 1201.71 262.257 1191.41 260.18C1183.17 258.517 1178.61 261.284 1177.36 262.875C1161.59 280.943 1160.32 316.979 1161.65 332.739C1161.27 346.368 1169.28 369.84 1173.33 379.873C1176.21 378.522 1194.3 376.67 1202.98 375.913C1226.89 369.465 1225.39 362.949 1226.96 359.085C1228.67 354.877 1228.92 352.995 1230.01 352.055C1233.95 354.09 1234.16 358.302 1249.39 358.504C1264.63 358.705 1270.09 349.684 1278.64 343.524C1285.49 338.595 1288.21 329.993 1288.72 326.308C1288.4 319.989 1278.75 310.277 1277.8 308.998C1276.85 307.718 1274.35 305.008 1276.62 306.101C1278.89 307.194 1290.25 312.657 1302.12 313.57C1313.98 314.483 1328.39 295.24 1332.31 282.193C1336.24 269.147 1324.6 252.174 1322.7 249.615C1321.18 247.568 1322.16 246.706 1322.84 246.532C1327.74 248.98 1339.03 254.564 1344.96 257.307C1352.37 260.736 1357.18 259.349 1359.96 255.892C1364.45 250.306 1367.89 234.577 1365.7 223.067Z" fill="#61B379"/>
<path d="M1206.89 347.785C1209.16 348.878 1212.74 351.86 1208.88 355.045C1204.05 359.028 1199.81 348.08 1206.89 347.785Z" fill="#F3DEE5"/>
<path d="M1346.26 171.334C1345.87 172.899 1243.46 284.396 1192.31 339.949C1188.17 342.232 1189.89 336.913 1191.27 333.969C1193.47 327.765 1331.12 175.834 1337.51 170.687C1343.9 165.54 1346.75 169.379 1346.26 171.334Z" fill="#F3DEE5"/>
<path d="M1344.89 232.335C1344.86 222.346 1330.87 218.056 1323.88 217.16C1321.34 219.64 1327.68 222.278 1334.6 227.662C1340.14 231.97 1343.77 232.572 1344.89 232.335Z" fill="#F3DEE5"/>
<path d="M1270.58 188.642C1265.59 188.217 1266.73 190.444 1267.92 191.611C1271.49 195.112 1285.99 198.246 1289.1 198.512C1292.22 198.779 1293.06 197.952 1293.08 195.357C1293.1 192.762 1276.81 189.174 1270.58 188.642Z" fill="#F3DEE5"/>
<path d="M1292.11 267.377C1284.18 262.466 1286.39 268.187 1288.49 271.662C1290.75 274.484 1296.79 281.139 1302.91 285.176C1309.02 289.213 1308.74 285.608 1307.84 283.3C1305.9 280.039 1300.04 272.289 1292.11 267.377Z" fill="#F3DEE5"/>
<path d="M1247.37 321.081C1241.65 315.48 1240.9 319.797 1241.24 322.655C1241.12 323.144 1242.44 326.492 1248.71 335.975C1254.98 345.458 1255.32 339.203 1254.71 334.89C1254.65 332.621 1253.09 326.682 1247.37 321.081Z" fill="#F3DEE5"/>
<path d="M1201.13 294.864C1209.09 295.623 1205.27 291.922 1202.36 289.976C1189.68 284.699 1184.38 288.042 1185.33 289.321C1186.29 290.601 1191.18 293.915 1201.13 294.864Z" fill="#F3DEE5"/>
<path d="M1228.41 234.676C1221.4 234.158 1224.83 237.067 1227.42 238.586C1235.78 243.295 1248.37 243.87 1247.79 241.124C1247.21 238.378 1237.16 235.323 1228.41 234.676Z" fill="#F3DEE5"/>
</g>
<mask id="mask5_0_1" style="mask-type:alpha" maskUnits="userSpaceOnUse" x="0" y="0" width="1279" height="537">
<rect width="1279" height="537" fill="#BDD59A"/>
</mask>
<g mask="url(#mask5_0_1)">
<path d="M51.6091 -9.74316C53.219 -24.1398 81.9043 -45.2932 94.5935 -53.7902C98.2169 -54.4392 108.098 -61.9145 143.693 -63.6221C172.17 -64.9882 197.438 -41.9545 206.512 -30.2669C189.574 -28.789 152.875 -12.3607 152.965 -11.8581C153.037 -11.4561 163.201 -13.1728 168.274 -14.0815C192.912 -16.8347 216.392 -9.90588 225.053 -6.09731C239.971 0.359392 251.959 14.6718 256.088 21.021C226.448 25.915 210.153 35.9916 205.71 40.4182C209.513 40.7743 240.946 36.7004 253.356 34.9962C263.284 33.633 268.358 36.6315 269.655 38.3011C286.226 57.3252 283.631 94.0634 280.263 110.054C279.161 123.945 267.028 147.523 261.1 157.575C257.841 156.084 236.681 153.477 226.508 152.36C198.983 144.842 201.496 138.267 200.082 134.271C198.541 129.919 198.458 127.992 197.282 126.992C192.389 128.906 191.66 133.186 173.637 132.783C155.614 132.381 150.19 122.979 140.778 116.365C133.248 111.075 131.012 102.208 130.835 98.4363C131.929 92.0161 144.438 82.514 145.707 81.2493C146.977 79.9845 150.24 77.3252 147.431 78.347C144.623 79.3688 130.579 84.4777 116.449 84.9337C102.32 85.3898 87.4884 65.2241 84.3332 51.7847C81.1781 38.3453 96.8653 21.531 99.404 19.0015C101.435 16.978 100.373 16.0616 99.5886 15.8563C93.5179 18.154 79.5462 23.3882 72.2254 25.9444C63.0743 29.1395 57.5513 27.5353 54.657 23.9042C49.9817 18.0387 47.7088 1.88781 51.6091 -9.74316Z" fill="#61B379"/>
<path d="M225.091 123.568C222.282 124.589 217.714 127.482 221.913 130.88C227.161 135.126 233.423 124.15 225.091 123.568Z" fill="#F3DEE5"/>
<path d="M80.4734 -61.6346C80.7615 -60.0264 189.086 57.5733 243.213 116.172C247.847 118.662 246.416 113.178 245.122 110.125C243.227 103.721 97.8572 -56.4493 90.8893 -61.9442C83.9215 -67.4391 80.1134 -63.6449 80.4734 -61.6346Z" fill="#F3DEE5"/>
<path d="M75.1518 0.523485C76.3223 -9.64494 93.3416 -13.4541 101.705 -14.0876C104.419 -11.4616 96.6275 -9.02865 87.8364 -3.82325C80.8036 0.341068 76.4497 0.809707 75.1518 0.523485Z" fill="#F3DEE5"/>
<path d="M167.941 -40.9934C173.883 -41.2277 172.287 -39.0053 170.746 -37.8648C166.123 -34.4434 148.64 -31.8306 144.926 -31.6842C141.213 -31.5377 140.308 -32.413 140.583 -35.0556C140.857 -37.6983 160.514 -40.7004 167.941 -40.9934Z" fill="#F3DEE5"/>
<path d="M133.528 38.3053C143.46 33.6218 140.199 39.3581 137.327 42.8117C134.335 45.5952 126.43 52.1288 118.745 55.9949C111.061 59.861 111.802 56.2013 113.132 53.8882C115.793 50.6454 123.596 42.9888 133.528 38.3053Z" fill="#F3DEE5"/>
<path d="M180.29 94.7652C187.687 89.2909 188.081 93.7157 187.353 96.6124C187.443 97.1149 185.501 100.471 177.013 109.875C168.526 119.28 168.828 112.897 170.041 108.531C170.375 106.223 172.894 100.24 180.29 94.7652Z" fill="#F3DEE5"/>
<path d="M237.92 69.9197C228.428 70.375 233.365 66.759 237.02 64.8941C252.604 60.0281 258.487 63.6425 257.217 64.9073C255.948 66.172 249.786 69.3505 237.92 69.9197Z" fill="#F3DEE5"/>
<path d="M212.539 7.55536C220.872 7.30769 216.491 10.1325 213.259 11.5759C202.839 16.0357 187.894 16.119 188.894 13.3466C189.893 10.5742 202.123 7.86493 212.539 7.55536Z" fill="#F3DEE5"/>
</g>
</svg>
