<svg width="170" height="131" viewBox="0 0 170 131" fill="none" xmlns="http://www.w3.org/2000/svg">
<path d="M16.3809 36.0278C18.5365 35.4687 23.2038 33.8142 24.628 31.6698C26.4082 28.9893 38.3733 19.566 42.6641 19.4717C45.6015 19.199 51.9831 20.0295 54.01 25.5332C56.0272 28.2561 57.6516 35.3423 48.0119 41.9039C48.9244 42.3176 51.1538 42.9122 52.7717 41.9815C54.7941 40.818 60.1615 37.7854 60.9343 36.4022C61.7071 35.0189 75.76 22.0756 82.1654 23.4703C85.6757 23.3281 93.1561 24.4025 94.9954 29.8375C97.0664 32.8975 98.5178 40.6979 87.7554 47.4195C84.5668 49.3459 77.5028 53.1852 74.7561 53.1311C74.3947 53.6335 74.2962 54.6766 76.7938 54.8299C79.9158 55.0215 95.1835 50.3791 98.0594 48.3381C100.935 46.2971 117.418 35.4344 122.728 36.1895C125.379 35.9708 131.436 36.3807 134.45 39.7705C138.218 44.0076 140.352 49.0744 138.191 53.5199C136.73 57.5076 132 65.9158 124.769 67.6465C125.056 67.831 126.395 68.29 129.456 68.6495C133.281 69.099 155.158 74.7339 155.062 85.8872C155.842 90.7756 154.363 101.153 142.205 103.554C137.424 104.5 126.283 105.48 119.959 101.83C119.828 101.703 119.537 101.676 119.417 102.584C119.267 103.719 117.598 112.63 111.523 114.689C109.942 115.618 105.81 117.214 101.934 116.175C97.0897 114.876 92.7721 109.962 90.8728 104.981C88.9736 99.9999 86.2746 91.3932 85.6441 90.21C85.0136 89.0267 79.6349 75.3913 75.0865 71.1063C74.0395 69.8498 71.4925 67.266 69.6808 66.9832C70.0499 67.9119 70.9611 70.0232 71.6531 71.0386C72.5182 72.3077 78.5082 83.5485 76.8242 89.597C76.423 92.3861 74.451 98.1069 69.7727 98.6781C67.3325 99.5298 61.5425 100.376 57.9038 96.9481C55.893 95.4178 51.5347 90.6628 50.1875 83.8845C49.4535 80.1912 49.2751 79.6086 49.3344 80.2797C49.5038 81.4754 49.6622 82.5815 49.7954 83.5028C49.5994 82.2753 49.384 80.8402 49.3344 80.2797C48.6103 75.168 47.6859 68.4204 47.6809 67.4925C47.6732 66.0614 45.228 61.1186 41.7831 58.9042C42.2099 60.8856 43.0018 65.0164 42.7558 65.688C42.4482 66.5275 41.2485 75.6102 35.7082 75.4847C32.0453 76.2851 24.1968 76.409 22.1053 70.5007C20.8174 67.9657 18.1392 61.2869 17.7302 54.8524C17.5879 52.5785 17.0989 47.7176 16.2808 46.4656C15.2581 44.9006 14.7121 44.9386 14.393 43.6314C14.0739 42.3242 13.8971 38.4506 16.3809 36.0278Z" fill="#F3DEE5"/>
</svg>
