<svg width="186" height="159" viewBox="0 0 186 159" fill="none" xmlns="http://www.w3.org/2000/svg">
<path d="M53.6338 29.4744C55.3076 35.3777 52.5308 42.1429 50.9331 44.7876C52.3101 48.0384 55.1699 53.5425 55.5928 49.5524C56.0156 45.5622 60.6926 35.8966 62.9783 31.5626C71.8548 17.7254 80.0104 27.2185 79.193 34.5068C78.5391 40.3375 66.9845 51.5334 61.2889 56.4025L75.4588 67.6231C75.2826 69.2857 75.2296 71.3114 76.4271 66.1137C77.9241 59.6165 86.6304 36.7921 96.576 42.1068C104.532 46.3586 103.052 54.4287 100.469 58.4541C94.603 67.5989 88.728 72.229 84.9202 73.6926C89.2393 77.2919 97.767 83.9225 97.3252 81.6504C96.7729 78.8103 99.4633 69.5275 106.08 59.2125C111.374 50.9605 119.209 47.7477 121.25 50.8326C128.04 69.3933 108.366 83.4067 106.914 85.6709C105.752 87.4823 117.21 91.2105 123.084 92.8481C122.657 91.5089 122.716 86.5749 126.367 77.5531C130.93 66.2757 139.89 62.8811 145.82 69.4352C150.414 74.5129 140.618 89.4179 134.419 96.923L174.515 108.44L166.876 115.259L130.545 102.961C131.092 116.451 123.712 123.791 122.372 125.417C121.032 127.043 112.601 133.709 108.857 122.429C105.112 111.149 123.377 95.1668 120.663 96.6218C118.492 97.7858 108.333 93.3284 103.525 90.9542C95.8061 115.477 83.4588 117.145 78.6422 117.251C73.8256 117.357 75.3182 106.241 79.6121 100.473C83.0472 95.8579 91.2382 88.5176 94.9043 85.4242L82.4994 77.4664C81.6988 79.7938 78.3186 86.5744 71.2019 95.0774C64.0853 103.58 58.8868 102.092 57.1771 100.285C54.9556 98.5051 52.1011 92.8386 58.4549 84.4144C64.8087 75.9902 72.0859 73.0353 74.9302 72.6108L57.2985 58.4592C50.3062 75.2807 42.4884 76.3026 39.4536 74.7109C37.201 74.2129 33.0012 71.3529 34.2224 63.8976C35.4437 56.4423 45.4019 52.4847 50.2283 51.4378L47.4758 46.476C44.4715 48.6918 36.9101 51.8432 30.6984 46.722C22.9338 40.3206 25.2822 28.3325 31.1263 21.0729C35.8017 15.2651 42.0916 16.6249 44.6522 18.0308C49.4246 19.1037 52.6285 26.1069 53.6338 29.4744Z" fill="#F3DEE5"/>
</svg>
