<svg width="302" height="193" viewBox="0 0 302 193" fill="none" xmlns="http://www.w3.org/2000/svg">
<path d="M89.6985 118.134C105.978 130.569 112.236 186.211 121.251 191.217C125.435 195.722 146.042 190.441 157.542 189.021C180.299 186.211 203.819 175.315 214.07 167.46C225.285 155.426 251.001 148.072 262.457 145.899C284.164 146.701 293.51 140.551 295.469 137.375C312.111 118.522 293.058 104.448 281.451 99.7686C252.961 87.2331 216.331 116.817 208.191 128.349C201.679 137.575 177.741 149.576 166.587 154.423C161.522 157.632 145.785 161.777 138.549 163.449L160.708 137.375C169.752 129.854 195.529 73.1935 193.72 32.5787C192.273 0.0868179 175.028 -2.01914 166.587 0.989367C143.071 9.51346 139.001 55.1424 140.358 73.1935C141.443 87.6343 135.082 118.655 131.766 132.361C130.711 140.383 127.993 156.93 125.435 156.93C123.955 156.93 124.406 154.675 125.435 152.417C130.266 118.822 105.887 86.5646 97.1443 73.1935C88.3463 63.0715 69.5589 47.1332 54.4361 35.0858C28.8591 10.5163 31.1202 10.0283 17.8063 10.5163C-0.644287 15.3299 -1.02527 32.6856 0.621918 45.1141C3.08252 63.68 21.424 78.5419 30.9207 82.7204C55.8925 90.6027 79.7821 109.124 89.6985 118.134Z" fill="#61B379"/>
<path d="M82.4866 91.6037C106.286 109.624 116.142 137.155 118.096 148.668C118.456 151.071 118.847 150.003 118.997 149.169C119.899 131.649 112.236 119.636 107.728 109.624C103.221 99.6128 80.6836 79.5901 78.8806 78.589C77.0777 77.5879 58.1463 63.0714 54.0896 61.5697C50.0329 60.068 30.6508 42.5482 29.7493 41.0465C28.8478 39.5448 18.0299 29.0328 26.5941 41.0465C27.4788 42.2875 37.412 54.0612 38.3135 55.5629C39.215 57.0646 52.7374 69.0782 82.4866 91.6037Z" fill="#A5D7A2"/>
<path d="M161.367 55.5629C161.728 52.3593 164.072 42.3813 164.973 39.5448C168.128 80.0907 159.114 100.614 157.761 107.622C156.409 114.63 148.296 135.654 140.633 145.164C132.97 154.675 133.872 152.172 134.773 149.169C135.494 146.766 137.928 143.162 140.633 134.152C148.296 122.138 154.101 98.2352 155.057 91.6037C156.86 79.0896 160.916 59.5674 161.367 55.5629Z" fill="#A5D7A2"/>
<path d="M223.119 138.156C226.725 136.154 247.46 126.31 257.827 123.139C253.77 123.139 250.615 121.137 240.699 123.139C230.782 125.142 215.361 134.012 208.245 140.159C200.131 147.167 201.934 149.169 166.776 166.689C163.946 168.099 145.14 174.698 137.928 177.201C138.65 178.803 143.638 177.868 146.042 177.201C177.594 171.694 210.499 145.164 223.119 138.156Z" fill="#A5D7A2"/>
</svg>
