<svg width="208" height="344" viewBox="0 0 208 344" fill="none" xmlns="http://www.w3.org/2000/svg">
<path d="M203.096 124.943C199.16 109.856 168.649 92.7292 155.296 86.073C151.783 86.073 141.241 79.9715 107.509 84.9636C80.5231 88.9573 60.6587 118.429 54.0996 132.666C70.263 131.002 107.509 141.541 107.509 142.096C107.509 142.54 97.6703 142.651 92.7511 142.651C69.1385 144.425 48.2434 156.333 40.7473 162.064C27.8167 171.827 18.962 189.429 16.151 197.009C44.8233 196.566 61.8299 204.22 66.7492 208.103C63.2354 209.212 33.017 210.876 21.0702 211.431C11.5128 211.875 7.24947 216.053 6.31249 218.087C-6.05596 241.606 2.56448 280.396 8.42075 296.852C11.794 311.496 27.1608 334.386 34.4226 344C37.2336 341.781 56.6765 334.94 66.0465 331.797C90.6429 318.485 87.1753 311.936 87.8319 307.391C88.5469 302.442 88.3004 300.365 89.2374 299.071C94.1566 300.18 95.5621 304.618 112.428 300.735C129.294 296.852 132.808 285.758 140.538 276.884C146.723 269.784 147.332 259.873 146.863 255.806C144.755 249.149 131.403 241.384 129.997 240.275C128.592 239.165 125.078 236.946 127.889 237.501C130.7 238.056 144.755 240.829 158.107 238.61C171.46 236.392 182.001 211.986 182.704 197.009C183.406 182.033 165.838 167.057 163.027 164.838C160.778 163.063 161.621 161.879 162.324 161.51C168.414 162.804 182.423 165.725 189.731 167.057C198.867 168.721 203.786 165.947 205.894 161.51C209.3 154.342 208.718 136.634 203.096 124.943Z" fill="#61B379"/>
<path d="M72.8858 280.394C75.1107 280.873 78.893 282.79 76.2232 286.623C72.8858 291.415 66.7674 282.31 72.8858 280.394Z" fill="#D2D2D2"/>
<path d="M155.763 85.3591C155.763 86.8925 90.8704 213.465 58.424 276.56C55.3092 279.627 55.6429 274.324 56.1991 271.289C56.7553 265.059 143.526 93.0263 147.976 86.7967C152.426 80.5671 155.763 83.4423 155.763 85.3591Z" fill="#D2D2D2"/>
<path d="M168 141.905C165.775 132.704 152.611 132.001 146.307 132.8C144.639 135.675 150.757 136.634 157.988 139.988C163.773 142.671 167.073 142.384 168 141.905Z" fill="#D2D2D2"/>
<path d="M93.4661 118.903C89.0163 119.67 90.4995 121.459 91.7974 122.258C95.691 124.654 109.04 124.174 111.821 123.695C114.603 123.216 115.159 122.258 114.603 119.862C114.046 117.466 99.0283 117.945 93.4661 118.903Z" fill="#D2D2D2"/>
<path d="M129.621 186.47C121.611 183.787 124.8 188.547 127.396 191.262C129.991 193.339 136.74 198.067 142.97 200.367C149.2 202.667 148.161 199.409 146.864 197.492C144.453 194.936 137.63 189.154 129.621 186.47Z" fill="#D2D2D2"/>
<path d="M102.366 246.37C96.1359 242.537 96.4326 246.69 97.3596 249.246C97.3596 249.725 99.2508 252.504 106.815 259.788C114.38 267.072 113.305 261.226 111.821 257.392C111.265 255.316 108.595 250.204 102.366 246.37Z" fill="#D2D2D2"/>
<path d="M56.1991 232.953C63.3188 231.803 59.1657 229.279 56.1991 228.161C43.9622 226.244 40.0686 230.557 41.1811 231.515C42.2935 232.474 47.2995 234.39 56.1991 232.953Z" fill="#D2D2D2"/>
<path d="M66.7673 171.136C60.5376 172.286 64.1716 174.171 66.7673 174.97C75.1106 177.366 86.2351 174.97 85.1227 172.574C84.0102 170.178 74.5544 169.698 66.7673 171.136Z" fill="#D2D2D2"/>
</svg>
