<svg width="205" height="344" viewBox="0 0 205 344" fill="none" xmlns="http://www.w3.org/2000/svg">
<path d="M5.63937 124.943C9.50241 109.856 39.453 92.7292 52.5597 86.073C56.0087 86.073 66.3565 79.9715 99.4683 84.9636C125.958 88.9573 145.457 118.429 151.895 132.666C136.029 131.002 99.4683 141.541 99.4683 142.096C99.4683 142.54 109.126 142.651 113.955 142.651C137.133 144.426 157.644 156.333 165.002 162.064C177.695 171.827 186.387 189.429 189.146 197.009C161.001 196.566 144.307 204.22 139.478 208.103C142.928 209.212 172.59 210.876 184.317 211.431C193.699 211.875 197.884 216.053 198.804 218.087C210.945 241.606 202.483 280.397 196.734 296.852C193.423 311.496 178.339 334.386 171.21 344C168.451 341.781 149.366 334.94 140.168 331.797C116.024 318.485 119.428 311.936 118.783 307.391C118.082 302.442 118.324 300.365 117.404 299.071C112.575 300.18 111.195 304.618 94.6394 300.735C78.0835 296.852 74.6343 285.758 67.0462 276.884C60.9757 269.784 60.3779 259.873 60.8378 255.806C62.9072 249.149 76.0139 241.384 77.3936 240.275C78.7732 239.165 82.2224 236.946 79.4631 237.501C76.7037 238.056 62.9072 240.829 49.8004 238.61C36.6937 236.392 26.3462 211.986 25.6564 197.009C24.9665 182.033 42.2123 167.057 44.9716 164.838C47.1791 163.063 46.3513 161.879 45.6614 161.51C39.6829 162.804 25.9323 165.725 18.7581 167.057C9.79033 168.721 4.96152 165.947 2.89203 161.51C-0.450958 154.342 0.120743 136.634 5.63937 124.943Z" fill="#61B379"/>
<path d="M133.454 280.394C131.27 280.873 127.558 282.79 130.179 286.623C133.454 291.415 139.46 282.311 133.454 280.394Z" fill="#D2D2D2"/>
<path d="M52.1013 85.3591C52.1013 86.8925 115.801 213.465 147.65 276.56C150.708 279.627 150.38 274.324 149.834 271.289C149.288 265.059 64.1132 93.0263 59.7453 86.7967C55.3773 80.5671 52.1013 83.4423 52.1013 85.3591Z" fill="#D2D2D2"/>
<path d="M40.0895 141.905C42.2734 132.704 55.1953 132.001 61.3832 132.8C63.0212 135.675 57.0153 136.634 49.9174 139.988C44.239 142.671 40.9995 142.384 40.0895 141.905Z" fill="#D2D2D2"/>
<path d="M113.253 118.903C117.621 119.67 116.165 121.459 114.891 122.258C111.069 124.654 97.9649 124.174 95.2349 123.695C92.5049 123.216 91.9589 122.258 92.5049 119.862C93.0509 117.466 107.793 117.945 113.253 118.903Z" fill="#D2D2D2"/>
<path d="M77.7631 186.47C85.6254 183.787 82.495 188.547 79.947 191.262C77.3991 193.339 70.7743 198.067 64.6592 200.367C58.5441 202.667 59.5633 199.409 60.8372 197.492C63.2032 194.936 69.9007 189.154 77.7631 186.47Z" fill="#D2D2D2"/>
<path d="M104.517 246.37C110.632 242.537 110.341 246.69 109.431 249.246C109.431 249.725 107.574 252.504 100.149 259.788C92.7233 267.072 93.7789 261.226 95.2349 257.392C95.7809 255.316 98.4017 250.204 104.517 246.37Z" fill="#D2D2D2"/>
<path d="M149.834 232.953C142.846 231.803 146.922 229.279 149.834 228.161C161.846 226.244 165.668 230.557 164.576 231.515C163.484 232.474 158.57 234.39 149.834 232.953Z" fill="#D2D2D2"/>
<path d="M139.46 171.136C145.576 172.286 142.008 174.171 139.46 174.97C131.271 177.366 120.351 174.97 121.443 172.574C122.535 170.178 131.817 169.698 139.46 171.136Z" fill="#D2D2D2"/>
</svg>
