<svg width="201" height="214" viewBox="0 0 201 214" fill="none" xmlns="http://www.w3.org/2000/svg">
<path d="M33.7377 62.0401C40.6125 63.8351 47.0255 60.451 49.3727 58.5346C53.3006 60.0508 60.1159 63.23 55.9543 63.818C51.7927 64.4059 42.8518 70.0633 38.9015 72.8185C26.7825 83.4452 39.5433 92.6641 47.1309 91.5381C53.2009 90.6373 61.6418 76.9716 65.1034 70.2514L81.6005 86.3982C83.3345 86.1533 85.4978 86.0421 80.2785 87.5575C73.7544 89.4517 51.9114 100.101 60.7348 111.497C67.7935 120.614 76.0152 118.7 79.5408 115.609C87.5501 108.586 90.6985 101.663 91.0849 97.2146C96.3062 102.132 106.103 111.852 103.52 111.396C100.292 110.826 91.1424 114.171 82.1083 122.093C74.8809 128.43 73.8693 137.589 77.8259 139.879C99.9179 147.293 108.856 124.149 110.839 122.41C112.426 121.019 120.014 134.207 123.61 140.974C122.035 140.512 116.745 140.702 108.176 145.154C97.4653 150.719 96.6092 161.186 105.513 167.898C112.41 173.097 125.392 161.379 131.533 154.01L156.441 200.197L161.394 191.177L136.821 149.373C151.507 149.676 157.102 140.943 158.434 139.35C159.766 137.757 164.307 127.823 151 123.76C137.693 119.697 126.196 141.257 126.915 138.076C127.49 135.531 119.522 123.867 115.467 118.353C139.446 108.806 137.386 94.4553 135.997 88.8705C134.608 83.2858 123.112 85.2882 118.245 90.406C114.351 94.5003 109.01 104.173 106.825 108.498L94.3901 94.3164C96.6447 93.3315 102.886 89.2477 109.814 80.7915C116.743 72.3352 113.519 66.347 111.041 64.4099C108.432 61.879 101.443 58.7098 94.3614 66.28C87.2797 73.8503 86.3715 82.3565 86.8026 85.6633L66.071 65.5764C81.9895 57.0603 80.6489 47.9749 77.9888 44.4967C76.7498 41.8984 72.3614 37.1012 64.7202 38.6993C57.079 40.2975 55.9287 51.9355 56.3088 57.5547L50.1104 54.4864C51.557 50.9503 52.5878 42.1098 45.1382 35.0365C35.8263 26.1948 23.6594 29.2104 17.6717 36.1614C12.8816 41.7223 16.3081 48.9785 18.6202 51.9116C21.2643 57.4162 29.8003 60.9575 33.7377 62.0401Z" fill="#61B379"/>
</svg>
