<svg width="208" height="183" viewBox="0 0 208 183" fill="none" xmlns="http://www.w3.org/2000/svg">
<path d="M183.924 37.5121C182.751 39.9394 180.617 45.414 181.466 47.8945C182.528 50.9951 181.799 67.5898 178.532 71.918C176.485 74.9838 170.738 80.9414 164.117 80.245C160.049 80.9127 152.295 79.033 153.825 66.1723C152.733 66.8785 150.446 68.8094 150.034 70.8836C149.518 73.4764 148.098 80.3304 148.759 81.785C149.421 83.2395 150.282 103.656 143.999 109.359C141.386 112.932 134.556 119.866 128.145 119.016C123.726 119.571 115.454 117.166 117.715 103.106C118.444 98.9722 120.452 90.0267 122.648 87.3126C122.471 86.7038 121.593 86.0902 119.501 88.5067C116.885 91.5273 109.201 109.056 108.82 112.934C108.44 116.812 105.498 138.626 100.657 143.551C98.7847 146.305 93.6757 152.146 88.2179 153.479C81.3956 155.146 75.0914 154.772 72.7123 150.42C70.2051 146.992 66.2079 138.118 70.276 130.047C69.8828 130.242 68.4161 131.352 65.6951 134.228C62.2938 137.824 40.0388 156.87 29.9079 151.264C24.8247 149.627 16.4848 143.025 23.7907 129.706C26.6609 124.469 34.4719 112.867 42.7547 108.36C42.9733 108.292 43.2262 108.015 42.4888 107.446C41.5671 106.736 34.7173 100.668 37.5809 93.5894C37.9676 91.5527 39.7359 86.6409 43.7158 83.287C48.6907 79.0946 56.5626 77.2143 62.605 77.7797C68.6473 78.3452 78.6325 79.904 80.208 79.8593C81.7836 79.8147 98.465 81.1838 105.941 78.7621C107.909 78.3381 112.264 77.073 113.939 75.4049C112.801 75.3144 110.157 75.1806 108.687 75.3696C106.849 75.6058 91.8811 76.0297 87.6625 71.3611C85.4239 69.583 81.7301 64.789 84.8639 59.8385C85.9917 56.9829 89.7426 50.7872 95.7235 48.8499C98.6954 47.5994 106.453 45.5994 113.709 47.6038C117.662 48.696 118.335 48.8058 117.674 48.5334C116.448 48.1117 115.312 47.7234 114.365 47.4011C115.641 47.8119 117.122 48.3059 117.674 48.5334C122.918 50.3362 129.815 52.7472 130.668 53.2006C131.983 53.9 138.418 53.9019 143.136 51.5584C140.99 51.0053 136.591 49.7549 136.168 49.1775C135.641 48.4559 128.267 42.7717 132.712 37.3053C134.842 33.2549 140.863 25.362 147.905 26.1938C151.231 26.161 159.436 26.788 165.644 29.5587C167.836 30.5402 172.666 32.4536 174.451 32.2557C176.682 32.0084 177.074 31.4448 178.52 31.7722C179.965 32.0995 183.648 33.8368 183.924 37.5121Z" fill="#F3DEE5"/>
</svg>
