<svg width="1412" height="731" viewBox="0 0 1412 731" fill="none" xmlns="http://www.w3.org/2000/svg">
<rect x="50" y="121" width="1279" height="537" fill="#BDD59A"/>
<path d="M1384.1 124.943C1380.16 109.856 1349.65 92.7292 1336.3 86.073C1332.78 86.073 1322.24 79.9715 1288.51 84.9636C1261.52 88.9573 1241.66 118.429 1235.1 132.666C1251.26 131.002 1288.51 141.541 1288.51 142.096C1288.51 142.54 1278.67 142.651 1273.75 142.651C1250.14 144.425 1229.24 156.333 1221.75 162.064C1208.82 171.827 1199.96 189.429 1197.15 197.009C1225.82 196.566 1242.83 204.22 1247.75 208.103C1244.24 209.212 1214.02 210.876 1202.07 211.431C1192.51 211.875 1188.25 216.053 1187.31 218.087C1174.94 241.606 1183.56 280.396 1189.42 296.852C1192.79 311.496 1208.16 334.386 1215.42 344C1218.23 341.781 1237.68 334.94 1247.05 331.797C1271.64 318.485 1268.18 311.936 1268.83 307.391C1269.55 302.442 1269.3 300.365 1270.24 299.071C1275.16 300.18 1276.56 304.618 1293.43 300.735C1310.29 296.852 1313.81 285.758 1321.54 276.884C1327.72 269.784 1328.33 259.873 1327.86 255.806C1325.75 249.149 1312.4 241.384 1311 240.275C1309.59 239.165 1306.08 236.946 1308.89 237.501C1311.7 238.056 1325.75 240.829 1339.11 238.61C1352.46 236.392 1363 211.986 1363.7 197.009C1364.41 182.033 1346.84 167.057 1344.03 164.838C1341.78 163.063 1342.62 161.879 1343.32 161.51C1349.41 162.804 1363.42 165.725 1370.73 167.057C1379.87 168.721 1384.79 165.947 1386.89 161.51C1390.3 154.342 1389.72 136.634 1384.1 124.943Z" fill="#61B379"/>
<path d="M1253.89 280.394C1256.11 280.873 1259.89 282.79 1257.22 286.623C1253.89 291.415 1247.77 282.31 1253.89 280.394Z" fill="#D2D2D2"/>
<path d="M1336.76 85.3591C1336.76 86.8925 1271.87 213.465 1239.42 276.56C1236.31 279.627 1236.64 274.324 1237.2 271.289C1237.76 265.059 1324.53 93.0263 1328.98 86.7967C1333.43 80.5671 1336.76 83.4423 1336.76 85.3591Z" fill="#D2D2D2"/>
<path d="M1349 141.905C1346.78 132.704 1333.61 132.001 1327.31 132.8C1325.64 135.675 1331.76 136.634 1338.99 139.988C1344.77 142.671 1348.07 142.384 1349 141.905Z" fill="#D2D2D2"/>
<path d="M1274.47 118.903C1270.02 119.67 1271.5 121.459 1272.8 122.258C1276.69 124.654 1290.04 124.174 1292.82 123.695C1295.6 123.216 1296.16 122.258 1295.6 119.862C1295.05 117.466 1280.03 117.945 1274.47 118.903Z" fill="#D2D2D2"/>
<path d="M1310.62 186.47C1302.61 183.787 1305.8 188.547 1308.4 191.262C1310.99 193.339 1317.74 198.067 1323.97 200.367C1330.2 202.667 1329.16 199.409 1327.86 197.492C1325.45 194.936 1318.63 189.154 1310.62 186.47Z" fill="#D2D2D2"/>
<path d="M1283.37 246.37C1277.14 242.537 1277.43 246.69 1278.36 249.246C1278.36 249.725 1280.25 252.504 1287.82 259.788C1295.38 267.072 1294.3 261.226 1292.82 257.392C1292.27 255.316 1289.6 250.204 1283.37 246.37Z" fill="#D2D2D2"/>
<path d="M1237.2 232.953C1244.32 231.803 1240.17 229.279 1237.2 228.161C1224.96 226.244 1221.07 230.557 1222.18 231.515C1223.29 232.474 1228.3 234.39 1237.2 232.953Z" fill="#D2D2D2"/>
<path d="M1247.77 171.136C1241.54 172.286 1245.17 174.171 1247.77 174.97C1256.11 177.366 1267.24 174.97 1266.12 172.574C1265.01 170.178 1255.55 169.698 1247.77 171.136Z" fill="#D2D2D2"/>
<path d="M5.63937 417.943C9.50241 402.856 39.453 385.729 52.5597 379.073C56.0087 379.073 66.3565 372.971 99.4683 377.964C125.958 381.957 145.457 411.429 151.895 425.666C136.029 424.002 99.4683 434.541 99.4683 435.096C99.4683 435.54 109.126 435.651 113.955 435.651C137.133 437.426 157.644 449.333 165.002 455.064C177.695 464.827 186.387 482.429 189.146 490.009C161.001 489.566 144.307 497.22 139.478 501.103C142.928 502.212 172.59 503.876 184.317 504.431C193.699 504.875 197.884 509.053 198.804 511.087C210.945 534.606 202.483 573.397 196.734 589.852C193.423 604.496 178.339 627.386 171.21 637C168.451 634.781 149.366 627.94 140.168 624.797C116.024 611.485 119.428 604.936 118.783 600.391C118.082 595.442 118.324 593.365 117.404 592.071C112.575 593.18 111.195 597.618 94.6394 593.735C78.0835 589.852 74.6343 578.758 67.0462 569.884C60.9757 562.784 60.3779 552.873 60.8378 548.806C62.9072 542.149 76.0139 534.384 77.3936 533.275C78.7732 532.165 82.2224 529.946 79.4631 530.501C76.7037 531.056 62.9072 533.829 49.8004 531.61C36.6937 529.392 26.3462 504.986 25.6564 490.009C24.9665 475.033 42.2123 460.057 44.9716 457.838C47.1791 456.063 46.3513 454.879 45.6614 454.51C39.6829 455.804 25.9323 458.725 18.7581 460.057C9.79033 461.721 4.96152 458.947 2.89203 454.51C-0.450958 447.342 0.120743 429.634 5.63937 417.943Z" fill="#61B379"/>
<path d="M133.454 573.394C131.27 573.873 127.558 575.79 130.179 579.623C133.454 584.415 139.46 575.311 133.454 573.394Z" fill="#D2D2D2"/>
<path d="M52.1013 378.359C52.1013 379.893 115.801 506.465 147.65 569.56C150.708 572.627 150.38 567.324 149.834 564.289C149.288 558.059 64.1132 386.026 59.7453 379.797C55.3773 373.567 52.1013 376.442 52.1013 378.359Z" fill="#D2D2D2"/>
<path d="M40.0895 434.905C42.2734 425.704 55.1953 425.001 61.3832 425.8C63.0212 428.675 57.0153 429.634 49.9174 432.988C44.239 435.671 40.9995 435.384 40.0895 434.905Z" fill="#D2D2D2"/>
<path d="M113.253 411.903C117.621 412.67 116.165 414.459 114.891 415.258C111.069 417.654 97.9649 417.174 95.2349 416.695C92.5049 416.216 91.9589 415.258 92.5049 412.862C93.0509 410.466 107.793 410.945 113.253 411.903Z" fill="#D2D2D2"/>
<path d="M77.7631 479.47C85.6254 476.787 82.495 481.547 79.947 484.262C77.3991 486.339 70.7743 491.067 64.6592 493.367C58.5441 495.667 59.5633 492.409 60.8372 490.492C63.2032 487.936 69.9007 482.154 77.7631 479.47Z" fill="#D2D2D2"/>
<path d="M104.517 539.37C110.632 535.537 110.341 539.69 109.431 542.246C109.431 542.725 107.574 545.504 100.149 552.788C92.7233 560.072 93.7789 554.226 95.2349 550.392C95.7809 548.316 98.4017 543.204 104.517 539.37Z" fill="#D2D2D2"/>
<path d="M149.834 525.953C142.846 524.803 146.922 522.279 149.834 521.161C161.846 519.244 165.668 523.557 164.576 524.515C163.484 525.474 158.57 527.39 149.834 525.953Z" fill="#D2D2D2"/>
<path d="M139.46 464.136C145.576 465.286 142.008 467.171 139.46 467.97C131.271 470.366 120.351 467.97 121.443 465.574C122.535 463.178 131.817 462.698 139.46 464.136Z" fill="#D2D2D2"/>
<path d="M1334.92 91.5121C1333.75 93.9394 1331.62 99.414 1332.47 101.894C1333.53 104.995 1332.8 121.59 1329.53 125.918C1327.49 128.984 1321.74 134.941 1315.12 134.245C1311.05 134.913 1303.29 133.033 1304.82 120.172C1303.73 120.878 1301.45 122.809 1301.03 124.884C1300.52 127.476 1299.1 134.33 1299.76 135.785C1300.42 137.239 1301.28 157.656 1295 163.359C1292.39 166.932 1285.56 173.866 1279.14 173.016C1274.73 173.571 1266.45 171.166 1268.71 157.106C1269.44 152.972 1271.45 144.027 1273.65 141.313C1273.47 140.704 1272.59 140.09 1270.5 142.507C1267.89 145.527 1260.2 163.056 1259.82 166.934C1259.44 170.812 1256.5 192.626 1251.66 197.551C1249.78 200.305 1244.68 206.146 1239.22 207.479C1232.4 209.146 1226.09 208.772 1223.71 204.42C1221.21 200.992 1217.21 192.118 1221.28 184.047C1220.88 184.242 1219.42 185.352 1216.7 188.228C1213.29 191.824 1191.04 210.87 1180.91 205.264C1175.82 203.627 1167.48 197.025 1174.79 183.706C1177.66 178.469 1185.47 166.867 1193.75 162.36C1193.97 162.292 1194.23 162.015 1193.49 161.446C1192.57 160.736 1185.72 154.668 1188.58 147.589C1188.97 145.553 1190.74 140.641 1194.72 137.287C1199.69 133.095 1207.56 131.214 1213.6 131.78C1219.65 132.345 1229.63 133.904 1231.21 133.859C1232.78 133.815 1249.47 135.184 1256.94 132.762C1258.91 132.338 1263.26 131.073 1264.94 129.405C1263.8 129.314 1261.16 129.181 1259.69 129.37C1257.85 129.606 1242.88 130.03 1238.66 125.361C1236.42 123.583 1232.73 118.789 1235.86 113.839C1236.99 110.983 1240.74 104.787 1246.72 102.85C1249.7 101.599 1257.45 99.5994 1264.71 101.604C1268.66 102.696 1269.33 102.806 1268.67 102.533C1267.45 102.112 1266.31 101.723 1265.36 101.401C1266.64 101.812 1268.12 102.306 1268.67 102.533C1273.92 104.336 1280.81 106.747 1281.67 107.201C1282.98 107.9 1289.42 107.902 1294.14 105.558C1291.99 105.005 1287.59 103.755 1287.17 103.178C1286.64 102.456 1279.27 96.7717 1283.71 91.3053C1285.84 87.2549 1291.86 79.362 1298.9 80.1938C1302.23 80.161 1310.44 80.788 1316.64 83.5587C1318.84 84.5402 1323.67 86.4536 1325.45 86.2557C1327.68 86.0084 1328.07 85.4448 1329.52 85.7722C1330.97 86.0995 1334.65 87.8368 1334.92 91.5121Z" fill="#F3DEE5"/>
<path d="M1336.26 599.134C1322.51 611.569 1317.23 667.211 1309.62 672.217C1306.09 676.722 1288.69 671.441 1278.98 670.021C1259.76 667.211 1239.9 656.315 1231.25 648.46C1221.78 636.426 1200.06 629.072 1190.39 626.899C1172.06 627.701 1164.17 621.551 1162.51 618.375C1148.46 599.522 1164.55 585.448 1174.35 580.769C1198.41 568.233 1229.34 597.817 1236.21 609.349C1241.71 618.575 1261.92 630.576 1271.34 635.423C1275.62 638.632 1288.9 642.777 1295.01 644.449L1276.3 618.375C1268.67 610.854 1246.9 554.193 1248.43 513.579C1249.65 481.087 1264.21 478.981 1271.34 481.989C1291.19 490.513 1294.63 536.142 1293.49 554.193C1292.57 568.634 1297.94 599.655 1300.74 613.361C1301.63 621.383 1303.93 637.93 1306.09 637.93C1307.34 637.93 1306.96 635.675 1306.09 633.417C1302.01 599.822 1322.59 567.565 1329.97 554.193C1337.4 544.071 1353.27 528.133 1366.04 516.086C1387.63 491.516 1385.72 491.028 1396.96 491.516C1412.54 496.33 1412.87 513.686 1411.47 526.114C1409.4 544.68 1393.91 559.542 1385.89 563.72C1364.81 571.603 1344.63 590.124 1336.26 599.134Z" fill="#61B379"/>
<path d="M1342.35 572.604C1322.26 590.624 1313.93 618.155 1312.28 629.668C1311.98 632.071 1311.65 631.003 1311.52 630.169C1310.76 612.649 1317.23 600.636 1321.04 590.624C1324.84 580.613 1343.87 560.59 1345.4 559.589C1346.92 558.588 1362.9 544.071 1366.33 542.57C1369.75 541.068 1386.12 523.548 1386.88 522.047C1387.64 520.545 1396.78 510.033 1389.54 522.047C1388.8 523.288 1380.41 535.061 1379.65 536.563C1378.89 538.065 1367.47 550.078 1342.35 572.604Z" fill="#A5D7A2"/>
<path d="M1275.75 536.563C1275.44 533.359 1273.46 523.381 1272.7 520.545C1270.04 561.091 1277.65 581.614 1278.79 588.622C1279.93 595.63 1286.78 616.654 1293.25 626.164C1299.72 635.675 1298.96 633.172 1298.2 630.169C1297.59 627.766 1295.54 624.162 1293.25 615.152C1286.78 603.138 1281.88 579.235 1281.07 572.604C1279.55 560.09 1276.13 540.567 1275.75 536.563Z" fill="#A5D7A2"/>
<path d="M1223.6 619.157C1220.56 617.154 1203.05 607.31 1194.3 604.14C1197.72 604.14 1200.39 602.137 1208.76 604.14C1217.13 606.142 1230.16 615.012 1236.16 621.159C1243.01 628.167 1241.49 630.169 1271.18 647.689C1273.57 649.099 1289.45 655.698 1295.54 658.201C1294.93 659.803 1290.72 658.868 1288.69 658.201C1262.04 652.695 1234.26 626.164 1223.6 619.157Z" fill="#A5D7A2"/>
<path d="M1093.95 559.187C1092.47 566.136 1096.15 572.388 1098.17 574.646C1096.83 578.639 1093.97 585.592 1093.19 581.461C1092.41 577.331 1086.36 568.658 1083.42 564.837C1072.25 553.216 1063.63 566.384 1065.1 573.912C1066.27 579.935 1080.31 587.743 1087.18 590.895L1071.81 608.111C1072.13 609.832 1072.34 611.988 1070.59 606.844C1068.4 600.413 1056.76 579.078 1045.78 588.413C1036.99 595.88 1039.28 604.006 1042.53 607.387C1049.91 615.067 1056.97 617.896 1061.43 618.079C1056.76 623.52 1047.5 633.75 1047.83 631.149C1048.26 627.897 1044.5 618.911 1036.17 610.247C1029.51 603.317 1020.32 602.724 1018.21 606.781C1011.81 629.188 1035.34 637.061 1037.17 638.963C1038.63 640.484 1025.8 648.666 1019.2 652.567C1019.59 650.973 1019.16 645.697 1014.32 637.34C1008.28 626.894 997.78 626.517 991.482 635.717C986.603 642.845 998.901 655.278 1006.54 661.076L961.54 688.067L970.777 692.603L1011.42 666.148C1011.78 680.833 1020.76 686.023 1022.41 687.281C1024.07 688.538 1034.2 692.621 1037.65 679.143C1041.1 665.664 1019.04 655.164 1022.25 655.737C1024.82 656.195 1036.11 647.703 1041.43 643.4C1052.06 666.919 1066.3 664.207 1071.82 662.564C1077.33 660.921 1074.81 649.529 1069.47 644.9C1065.21 641.198 1055.3 636.303 1050.88 634.318L1064.48 621.249C1065.57 623.456 1069.93 629.505 1078.69 636.04C1087.46 642.575 1093.29 639.081 1095.11 636.517C1097.52 633.796 1100.37 626.67 1092.48 619.941C1084.6 613.212 1076.06 612.693 1072.78 613.274L1091.9 591.648C1101.13 607.161 1110.15 605.407 1113.5 602.591C1116.04 601.235 1120.63 596.632 1118.68 589.072C1116.74 581.512 1105.06 580.894 1099.46 581.53L1102.25 575.198C1105.85 576.482 1114.72 577.108 1121.45 569.343C1129.86 559.638 1126.29 547.621 1119.07 541.957C1113.3 537.425 1106.21 541.18 1103.38 543.623C1098 546.516 1094.86 555.204 1093.95 559.187Z" fill="#61B379"/>
<path d="M252.738 107.04C259.613 108.835 266.026 105.451 268.373 103.535C272.301 105.051 279.116 108.23 274.954 108.818C270.793 109.406 261.852 115.063 257.901 117.818C245.783 128.445 258.543 137.664 266.131 136.538C272.201 135.637 280.642 121.972 284.103 115.251L300.601 131.398C302.335 131.153 304.498 131.042 299.278 132.557C292.754 134.452 270.911 145.101 279.735 156.497C286.793 165.614 295.015 163.7 298.541 160.609C306.55 153.586 309.699 146.663 310.085 142.215C315.306 147.132 325.103 156.852 322.52 156.396C319.292 155.826 310.142 159.171 301.108 167.093C293.881 173.43 292.869 182.589 296.826 184.879C318.918 192.293 327.856 169.149 329.839 167.41C331.426 166.019 339.014 179.207 342.61 185.974C341.035 185.512 335.745 185.702 327.176 190.154C316.465 195.719 315.609 206.186 324.513 212.898C331.41 218.097 344.392 206.379 350.533 199.01L375.441 245.197L380.394 236.177L355.821 194.373C370.507 194.676 376.102 185.943 377.434 184.35C378.766 182.757 383.307 172.823 370 168.76C356.693 164.697 345.196 186.257 345.915 183.076C346.49 180.531 338.522 168.867 334.467 163.353C358.446 153.806 356.386 139.455 354.997 133.871C353.608 128.286 342.112 130.288 337.245 135.406C333.351 139.5 328.01 149.173 325.825 153.498L313.39 139.316C315.645 138.332 321.886 134.248 328.814 125.791C335.743 117.335 332.519 111.347 330.041 109.41C327.432 106.879 320.443 103.71 313.361 111.28C306.28 118.85 305.371 127.356 305.803 130.663L285.071 110.576C300.99 102.06 299.649 92.9749 296.989 89.4967C295.75 86.8984 291.361 82.1012 283.72 83.6993C276.079 85.2975 274.929 96.9355 275.309 102.555L269.11 99.4864C270.557 95.9503 271.588 87.1098 264.138 80.0365C254.826 71.1948 242.659 74.2104 236.672 81.1614C231.882 86.7223 235.308 93.9785 237.62 96.9116C240.264 102.416 248.8 105.958 252.738 107.04Z" fill="#61B379"/>
<path d="M978.778 548.617C982.202 553.213 988.26 554.529 990.861 554.612C992.539 557.527 995.14 562.906 992.12 561.107C989.099 559.309 980.121 558.026 976.009 557.61C962.164 557.61 965.185 569.6 970.723 572.848C975.153 575.445 988.344 571.765 994.385 569.6L995.896 587.586C997.154 588.335 998.614 589.384 994.385 587.586C989.099 585.337 968.961 580.341 968.205 591.582C967.601 600.575 973.995 603.686 978.023 603.686C987.173 603.686 993.127 601.241 995.896 598.826C996.483 604.405 997.305 615.163 995.896 613.564C994.133 611.566 986.33 608.818 976.009 608.818C967.752 608.818 961.912 613.678 963.171 617.062C973.24 632.799 992.12 623.806 994.385 623.806C996.198 623.806 993.63 635.463 992.12 641.292C991.364 640.21 987.84 637.595 979.785 635.796C969.716 633.548 963.235 639.257 965.185 647.787C966.695 654.395 981.715 654.198 989.854 653.032L979.785 693L988.092 690.252L995.896 653.032C1005.21 660.776 1013.77 658.528 1015.53 658.278C1017.29 658.028 1025.85 654.531 1019.56 645.289C1013.26 636.046 993.63 642.791 995.896 641.292C997.708 640.093 999.168 629.135 999.672 623.806C1020.57 630.551 1027.36 621.058 1029.63 617.062C1031.89 613.065 1023.33 608.319 1017.29 608.818C1012.46 609.218 1003.53 612.149 999.672 613.564V598.826C1001.69 599.409 1008.03 600.225 1017.29 598.826C1026.56 597.428 1027.87 592.248 1027.36 589.834C1027.11 587.003 1024.39 581.54 1015.53 582.34C1006.67 583.139 1001.27 587.669 999.672 589.834L997.658 567.352C1012.76 570.549 1017.04 564.521 1017.29 561.107C1017.96 558.942 1017.85 553.863 1012.01 550.865C1006.17 547.868 998.832 554.113 995.896 557.61L993.63 552.614C996.567 551.282 1002.24 546.619 1001.43 538.625C1000.43 528.633 990.861 524.137 983.057 525.136C976.814 525.936 974.918 531.964 974.75 534.878C973.341 539.475 976.848 545.953 978.778 548.617Z" fill="#F3DEE5"/>
<path d="M251.634 156.474C253.308 162.378 250.531 169.143 248.933 171.788C250.31 175.038 253.17 180.542 253.593 176.552C254.016 172.562 258.693 162.897 260.978 158.563C269.855 144.725 278.01 154.219 277.193 161.507C276.539 167.337 264.984 178.533 259.289 183.402L273.459 194.623C273.283 196.286 273.23 198.311 274.427 193.114C275.924 186.616 284.63 163.792 294.576 169.107C302.532 173.359 301.052 181.429 298.469 185.454C292.603 194.599 286.728 199.229 282.92 200.693C287.239 204.292 295.767 210.923 295.325 208.65C294.773 205.81 297.463 196.528 304.08 186.213C309.374 177.961 317.209 174.748 319.25 177.833C326.04 196.393 306.366 210.407 304.914 212.671C303.752 214.482 315.21 218.21 321.084 219.848C320.657 218.509 320.716 213.575 324.367 204.553C328.93 193.276 337.89 189.881 343.82 196.435C348.414 201.513 338.618 216.418 332.419 223.923L372.515 235.44L364.876 242.259L328.545 229.961C329.092 243.451 321.712 250.791 320.372 252.417C319.032 254.043 310.601 260.709 306.857 249.429C303.112 238.149 321.377 222.167 318.663 223.622C316.492 224.786 306.333 220.328 301.525 217.954C293.806 242.477 281.459 244.145 276.642 244.251C271.826 244.357 273.318 233.241 277.612 227.473C281.047 222.858 289.238 215.518 292.904 212.424L280.499 204.466C279.699 206.794 276.319 213.574 269.202 222.077C262.085 230.58 256.887 229.092 255.177 227.285C252.956 225.505 250.101 219.839 256.455 211.414C262.809 202.99 270.086 200.035 272.93 199.611L255.299 185.459C248.306 202.281 240.488 203.303 237.454 201.711C235.201 201.213 231.001 198.353 232.222 190.898C233.444 183.442 243.402 179.485 248.228 178.438L245.476 173.476C242.472 175.692 234.91 178.843 228.698 173.722C220.934 167.321 223.282 155.333 229.126 148.073C233.802 142.265 240.092 143.625 242.652 145.031C247.425 146.104 250.628 153.107 251.634 156.474Z" fill="#F3DEE5"/>
<path d="M45.3809 373.028C47.5365 372.469 52.2038 370.814 53.628 368.67C55.4082 365.989 67.3733 356.566 71.6641 356.472C74.6015 356.199 80.9831 357.029 83.01 362.533C85.0272 365.256 86.6516 372.342 77.0119 378.904C77.9244 379.318 80.1538 379.912 81.7717 378.981C83.7941 377.818 89.1615 374.785 89.9343 373.402C90.7071 372.019 104.76 359.076 111.165 360.47C114.676 360.328 122.156 361.402 123.995 366.837C126.066 369.897 127.518 377.698 116.755 384.419C113.567 386.346 106.503 390.185 103.756 390.131C103.395 390.633 103.296 391.677 105.794 391.83C108.916 392.022 124.184 387.379 127.059 385.338C129.935 383.297 146.418 372.434 151.728 373.19C154.379 372.971 160.436 373.381 163.45 376.77C167.218 381.008 169.352 386.074 167.191 390.52C165.73 394.508 161 402.916 153.769 404.646C154.056 404.831 155.395 405.29 158.456 405.65C162.281 406.099 184.158 411.734 184.062 422.887C184.842 427.776 183.363 438.153 171.205 440.554C166.424 441.5 155.283 442.48 148.959 438.83C148.828 438.703 148.537 438.676 148.417 439.584C148.267 440.719 146.598 449.63 140.523 451.689C138.942 452.618 134.81 454.214 130.934 453.175C126.09 451.876 121.772 446.962 119.873 441.981C117.974 437 115.275 428.393 114.644 427.21C114.014 426.027 108.635 412.391 104.087 408.106C103.039 406.85 100.492 404.266 98.6808 403.983C99.0499 404.912 99.9611 407.023 100.653 408.039C101.518 409.308 107.508 420.549 105.824 426.597C105.423 429.386 103.451 435.107 98.7727 435.678C96.3325 436.53 90.5425 437.376 86.9038 433.948C84.893 432.418 80.5347 427.663 79.1875 420.885C78.4535 417.191 78.2751 416.609 78.3344 417.28C78.5038 418.475 78.6622 419.582 78.7954 420.503C78.5994 419.275 78.384 417.84 78.3344 417.28C77.6103 412.168 76.6859 405.42 76.6809 404.493C76.6732 403.061 74.228 398.119 70.7831 395.904C71.2099 397.886 72.0018 402.016 71.7558 402.688C71.4482 403.528 70.2485 412.61 64.7082 412.485C61.0453 413.285 53.1968 413.409 51.1053 407.501C49.8174 404.966 47.1392 398.287 46.7302 391.852C46.5879 389.578 46.0989 384.718 45.2808 383.466C44.2581 381.901 43.7121 381.939 43.393 380.631C43.0739 379.324 42.8971 375.451 45.3809 373.028Z" fill="#F3DEE5"/>
</svg>
