<svg xmlns="http://www.w3.org/2000/svg" xmlns:xlink="http://www.w3.org/1999/xlink" width="200" zoomAndPan="magnify" viewBox="0 0 150 159.750002" height="213" preserveAspectRatio="xMidYMid meet" version="1.0"><defs><clipPath id="ad7380e04e"><path d="M 0.117188 1 L 68 1 L 68 149.765625 L 0.117188 149.765625 Z M 0.117188 1 " clip-rule="nonzero"/></clipPath><clipPath id="3e9932aa18"><path d="M 31.503906 0 L 149.835938 0 L 149.835938 149.378906 L 31.503906 149.378906 Z M 31.503906 0 " clip-rule="nonzero"/></clipPath><clipPath id="a6916ef354"><path d="M 58.914062 18.550781 L 91.085938 18.550781 L 91.085938 87.175781 L 58.914062 87.175781 Z M 58.914062 18.550781 " clip-rule="nonzero"/></clipPath><clipPath id="1b309d2756"><path d="M 75 18.550781 C 79.265625 18.550781 83.359375 20.246094 86.375 23.261719 C 89.390625 26.28125 91.085938 30.371094 91.085938 34.640625 L 91.085938 70.984375 C 91.085938 75.25 89.390625 79.34375 86.375 82.359375 C 83.359375 85.378906 79.265625 87.074219 75 87.074219 C 70.734375 87.074219 66.640625 85.378906 63.625 82.359375 C 60.609375 79.34375 58.914062 75.25 58.914062 70.984375 L 58.914062 34.640625 C 58.914062 30.371094 60.609375 26.28125 63.625 23.261719 C 66.640625 20.246094 70.734375 18.550781 75 18.550781 Z M 75 18.550781 " clip-rule="nonzero"/></clipPath><clipPath id="a58f01165e"><path d="M 75 29.488281 L 107.175781 29.488281 L 107.175781 98 L 75 98 Z M 75 29.488281 " clip-rule="nonzero"/></clipPath><clipPath id="e82098dc10"><path d="M 91.085938 29.488281 C 95.355469 29.488281 99.445312 31.183594 102.460938 34.203125 C 105.480469 37.21875 107.175781 41.3125 107.175781 45.578125 L 107.175781 81.921875 C 107.175781 86.191406 105.480469 90.28125 102.460938 93.300781 C 99.445312 96.316406 95.355469 98.011719 91.085938 98.011719 C 86.820312 98.011719 82.730469 96.316406 79.710938 93.300781 C 76.695312 90.28125 75 86.191406 75 81.921875 L 75 45.578125 C 75 41.3125 76.695312 37.21875 79.710938 34.203125 C 82.730469 31.183594 86.820312 29.488281 91.085938 29.488281 Z M 91.085938 29.488281 " clip-rule="nonzero"/></clipPath><clipPath id="521af544e7"><path d="M 42.824219 30.53125 L 75 30.53125 L 75 99.15625 L 42.824219 99.15625 Z M 42.824219 30.53125 " clip-rule="nonzero"/></clipPath><clipPath id="4e6ba765a2"><path d="M 58.914062 30.53125 C 63.179688 30.53125 67.269531 32.226562 70.289062 35.246094 C 73.304688 38.261719 75 42.351562 75 46.621094 L 75 82.964844 C 75 87.234375 73.304688 91.324219 70.289062 94.34375 C 67.269531 97.359375 63.179688 99.054688 58.914062 99.054688 C 54.644531 99.054688 50.554688 97.359375 47.539062 94.34375 C 44.519531 91.324219 42.824219 87.234375 42.824219 82.964844 L 42.824219 46.621094 C 42.824219 42.351562 44.519531 38.261719 47.539062 35.246094 C 50.554688 32.226562 54.644531 30.53125 58.914062 30.53125 Z M 58.914062 30.53125 " clip-rule="nonzero"/></clipPath><clipPath id="8841877e63"><path d="M 63.605469 74.695312 L 95.78125 74.695312 L 95.78125 143.316406 L 63.605469 143.316406 Z M 63.605469 74.695312 " clip-rule="nonzero"/></clipPath><clipPath id="f48d1ff2dd"><path d="M 79.691406 74.695312 C 83.960938 74.695312 88.050781 76.390625 91.070312 79.40625 C 94.085938 82.425781 95.78125 86.515625 95.78125 90.78125 L 95.78125 127.128906 C 95.78125 131.394531 94.085938 135.488281 91.070312 138.503906 C 88.050781 141.523438 83.960938 143.214844 79.691406 143.214844 C 75.425781 143.214844 71.335938 141.523438 68.316406 138.503906 C 65.300781 135.488281 63.605469 131.394531 63.605469 127.128906 L 63.605469 90.78125 C 63.605469 86.515625 65.300781 82.425781 68.316406 79.40625 C 71.335938 76.390625 75.425781 74.695312 79.691406 74.695312 Z M 79.691406 74.695312 " clip-rule="nonzero"/></clipPath><clipPath id="9a5066d714"><path d="M 75 52.8125 L 116.621094 52.8125 L 116.621094 87.074219 L 75 87.074219 Z M 75 52.8125 " clip-rule="nonzero"/></clipPath><clipPath id="2c1d363aa4"><path d="M 92.128906 52.8125 L 99.429688 52.8125 C 103.972656 52.8125 108.332031 54.617188 111.542969 57.828125 C 114.757812 61.042969 116.5625 65.398438 116.5625 69.941406 C 116.5625 74.484375 114.757812 78.84375 111.542969 82.054688 C 108.332031 85.269531 103.972656 87.074219 99.429688 87.074219 L 92.128906 87.074219 C 87.585938 87.074219 83.230469 85.269531 80.015625 82.054688 C 76.804688 78.84375 75 74.484375 75 69.941406 C 75 65.398438 76.804688 61.042969 80.015625 57.828125 C 83.230469 54.617188 87.585938 52.8125 92.128906 52.8125 Z M 92.128906 52.8125 " clip-rule="nonzero"/></clipPath><clipPath id="74a75abb3c"><path d="M 38.132812 52.8125 L 79.753906 52.8125 L 79.753906 87.074219 L 38.132812 87.074219 Z M 38.132812 52.8125 " clip-rule="nonzero"/></clipPath><clipPath id="66791666d8"><path d="M 55.261719 52.8125 L 62.5625 52.8125 C 67.105469 52.8125 71.464844 54.617188 74.675781 57.828125 C 77.886719 61.042969 79.691406 65.398438 79.691406 69.941406 C 79.691406 74.484375 77.886719 78.84375 74.675781 82.054688 C 71.464844 85.269531 67.105469 87.074219 62.5625 87.074219 L 55.261719 87.074219 C 50.71875 87.074219 46.363281 85.269531 43.148438 82.054688 C 39.9375 78.84375 38.132812 74.484375 38.132812 69.941406 C 38.132812 65.398438 39.9375 61.042969 43.148438 57.828125 C 46.363281 54.617188 50.71875 52.8125 55.261719 52.8125 Z M 55.261719 52.8125 " clip-rule="nonzero"/></clipPath><clipPath id="78b811879f"><path d="M 70.308594 81.921875 L 111.929688 81.921875 L 111.929688 116.183594 L 70.308594 116.183594 Z M 70.308594 81.921875 " clip-rule="nonzero"/></clipPath><clipPath id="9cc92abb17"><path d="M 87.4375 81.921875 L 94.738281 81.921875 C 99.28125 81.921875 103.636719 83.726562 106.851562 86.941406 C 110.0625 90.152344 111.867188 94.511719 111.867188 99.054688 C 111.867188 103.597656 110.0625 107.953125 106.851562 111.167969 C 103.636719 114.378906 99.28125 116.183594 94.738281 116.183594 L 87.4375 116.183594 C 82.894531 116.183594 78.535156 114.378906 75.324219 111.167969 C 72.113281 107.953125 70.308594 103.597656 70.308594 99.054688 C 70.308594 94.511719 72.113281 90.152344 75.324219 86.941406 C 78.535156 83.726562 82.894531 81.921875 87.4375 81.921875 Z M 87.4375 81.921875 " clip-rule="nonzero"/></clipPath><clipPath id="1a99ae15d7"><path d="M 38.132812 87.074219 L 79.753906 87.074219 L 79.753906 121.332031 L 38.132812 121.332031 Z M 38.132812 87.074219 " clip-rule="nonzero"/></clipPath><clipPath id="a0fbf8df07"><path d="M 55.261719 87.074219 L 62.5625 87.074219 C 67.105469 87.074219 71.464844 88.878906 74.675781 92.089844 C 77.886719 95.300781 79.691406 99.660156 79.691406 104.203125 C 79.691406 108.746094 77.886719 113.101562 74.675781 116.316406 C 71.464844 119.527344 67.105469 121.332031 62.5625 121.332031 L 55.261719 121.332031 C 50.71875 121.332031 46.363281 119.527344 43.148438 116.316406 C 39.9375 113.101562 38.132812 108.746094 38.132812 104.203125 C 38.132812 99.660156 39.9375 95.300781 43.148438 92.089844 C 46.363281 88.878906 50.71875 87.074219 55.261719 87.074219 Z M 55.261719 87.074219 " clip-rule="nonzero"/></clipPath><clipPath id="463a7d3294"><path d="M 51.25 33.632812 L 104.417969 33.632812 L 104.417969 140.707031 L 51.25 140.707031 Z M 51.25 33.632812 " clip-rule="nonzero"/></clipPath><clipPath id="60a1308b00"><path d="M 31 28 L 149.882812 28 L 149.882812 159.5 L 31 159.5 Z M 31 28 " clip-rule="nonzero"/></clipPath></defs><g clip-path="url(#ad7380e04e)"><path fill="#ffffff" d="M 53.785156 141.238281 C 40.203125 131.664062 30.773438 118.910156 26.515625 104.351562 C 22.359375 90.132812 22.226562 75.265625 26.128906 60.164062 C 29.214844 48.222656 34.816406 36.128906 42.78125 24.21875 C 49.226562 14.578125 56.121094 6.675781 61.628906 1 C 26.679688 7.304688 0.167969 37.875 0.167969 74.644531 C 0.167969 113.4375 29.683594 145.332031 67.484375 149.105469 C 63.90625 147.472656 59.015625 144.921875 53.785156 141.238281 " fill-opacity="1" fill-rule="nonzero"/></g><g clip-path="url(#3e9932aa18)"><path fill="#ffffff" d="M 88.375 1 C 93.882812 6.675781 100.777344 14.578125 107.222656 24.21875 C 115.1875 36.128906 120.789062 48.222656 123.875 60.164062 C 127.777344 75.265625 127.644531 90.132812 123.488281 104.351562 C 119.707031 117.285156 112.117188 128.488281 100.929688 137.65625 C 99.101562 139.15625 96.402344 138.886719 94.90625 137.058594 C 93.410156 135.230469 93.675781 132.535156 95.503906 131.035156 C 105.332031 122.980469 111.984375 113.195312 115.273438 101.949219 C 122.0625 78.730469 116.960938 54.179688 100.109375 28.976562 C 90.601562 14.757812 79.890625 4.394531 75.003906 0 C 70.089844 4.425781 59.285156 14.886719 49.769531 29.164062 C 33.019531 54.304688 27.960938 78.792969 34.730469 101.949219 C 41.414062 124.796875 60.6875 136.445312 70.296875 140.964844 L 70.296875 122.816406 C 65.183594 120.746094 54.378906 115.617188 44.425781 106.023438 C 42.726562 104.382812 42.675781 101.671875 44.316406 99.972656 C 45.957031 98.269531 48.667969 98.222656 50.367188 99.863281 C 57.496094 106.734375 65.234375 111.078125 70.296875 113.460938 L 70.296875 89.585938 C 64.554688 87.261719 51.640625 81.085938 40.820312 69.0625 C 39.242188 67.304688 39.382812 64.597656 41.140625 63.015625 C 42.898438 61.4375 45.605469 61.582031 47.1875 63.335938 C 55.144531 72.183594 64.488281 77.511719 70.296875 80.238281 L 70.296875 56.351562 C 66.421875 54.777344 59.265625 51.445312 51.691406 45.742188 C 49.800781 44.320312 49.421875 41.636719 50.84375 39.75 C 52.265625 37.863281 54.949219 37.480469 56.839844 38.902344 C 61.878906 42.699219 66.742188 45.332031 70.296875 47 L 70.296875 33.777344 C 70.296875 31.414062 72.210938 29.5 74.574219 29.5 C 76.9375 29.5 78.855469 31.414062 78.855469 33.777344 L 78.855469 47 C 82.410156 45.332031 87.273438 42.699219 92.3125 38.902344 C 94.203125 37.484375 96.882812 37.863281 98.304688 39.75 C 99.726562 41.636719 99.351562 44.320312 97.460938 45.742188 C 89.886719 51.445312 82.730469 54.777344 78.855469 56.351562 L 78.855469 80.226562 C 84.679688 77.484375 94.046875 72.140625 101.964844 63.335938 C 103.546875 61.582031 106.253906 61.4375 108.007812 63.015625 C 109.769531 64.597656 109.910156 67.304688 108.328125 69.0625 C 97.511719 81.085938 84.597656 87.261719 78.855469 89.585938 L 78.855469 113.460938 C 83.917969 111.078125 91.65625 106.734375 98.78125 99.863281 C 100.484375 98.21875 103.195312 98.269531 104.835938 99.972656 C 106.476562 101.671875 106.425781 104.382812 104.722656 106.023438 C 94.773438 115.617188 83.964844 120.746094 78.855469 122.816406 L 78.855469 149.378906 C 118.394531 147.375 149.839844 114.679688 149.839844 74.644531 C 149.839844 37.875 123.324219 7.304688 88.375 1 " fill-opacity="1" fill-rule="nonzero"/></g><g clip-path="url(#a6916ef354)"><g clip-path="url(#1b309d2756)"><path fill="#ffffff" d="M 58.914062 18.550781 L 91.085938 18.550781 L 91.085938 87.046875 L 58.914062 87.046875 Z M 58.914062 18.550781 " fill-opacity="1" fill-rule="nonzero"/></g></g><g clip-path="url(#a58f01165e)"><g clip-path="url(#e82098dc10)"><path fill="#ffffff" d="M 75 29.488281 L 107.175781 29.488281 L 107.175781 97.988281 L 75 97.988281 Z M 75 29.488281 " fill-opacity="1" fill-rule="nonzero"/></g></g><g clip-path="url(#521af544e7)"><g clip-path="url(#4e6ba765a2)"><path fill="#ffffff" d="M 42.824219 30.53125 L 75 30.53125 L 75 99.03125 L 42.824219 99.03125 Z M 42.824219 30.53125 " fill-opacity="1" fill-rule="nonzero"/></g></g><g clip-path="url(#8841877e63)"><g clip-path="url(#f48d1ff2dd)"><path fill="#ffffff" d="M 63.605469 74.695312 L 95.78125 74.695312 L 95.78125 143.191406 L 63.605469 143.191406 Z M 63.605469 74.695312 " fill-opacity="1" fill-rule="nonzero"/></g></g><g clip-path="url(#9a5066d714)"><g clip-path="url(#2c1d363aa4)"><path fill="#ffffff" d="M 75 52.8125 L 116.621094 52.8125 L 116.621094 87.074219 L 75 87.074219 Z M 75 52.8125 " fill-opacity="1" fill-rule="nonzero"/></g></g><g clip-path="url(#74a75abb3c)"><g clip-path="url(#66791666d8)"><path fill="#ffffff" d="M 38.132812 52.8125 L 79.753906 52.8125 L 79.753906 87.074219 L 38.132812 87.074219 Z M 38.132812 52.8125 " fill-opacity="1" fill-rule="nonzero"/></g></g><g clip-path="url(#78b811879f)"><g clip-path="url(#9cc92abb17)"><path fill="#ffffff" d="M 70.308594 81.921875 L 111.929688 81.921875 L 111.929688 116.183594 L 70.308594 116.183594 Z M 70.308594 81.921875 " fill-opacity="1" fill-rule="nonzero"/></g></g><g clip-path="url(#1a99ae15d7)"><g clip-path="url(#a0fbf8df07)"><path fill="#ffffff" d="M 38.132812 87.074219 L 79.753906 87.074219 L 79.753906 121.332031 L 38.132812 121.332031 Z M 38.132812 87.074219 " fill-opacity="1" fill-rule="nonzero"/></g></g><g clip-path="url(#463a7d3294)"><path fill="#000000" d="M 104.417969 64.21875 C 104.417969 61.082031 101.867188 58.539062 98.726562 58.539062 C 95.582031 58.539062 93.035156 61.082031 93.035156 64.21875 C 93.035156 66.75 94.695312 68.894531 96.988281 69.625 L 96.988281 85.285156 L 79.5625 96.265625 L 79.5625 49.65625 L 86.914062 49.65625 L 77.640625 33.632812 L 68.367188 49.65625 L 75.71875 49.65625 L 75.71875 112.589844 L 58.3125 101.625 L 58.3125 84.140625 L 61.3125 84.140625 L 61.3125 74.101562 L 51.25 74.101562 L 51.25 84.140625 L 54.464844 84.140625 L 54.464844 103.507812 L 75.71875 117.445312 L 75.71875 125.171875 C 72.28125 126.027344 69.738281 129.128906 69.738281 132.824219 C 69.738281 137.175781 73.273438 140.707031 77.640625 140.707031 C 82.003906 140.707031 85.542969 137.175781 85.542969 132.824219 C 85.542969 129.128906 83 126.027344 79.5625 125.171875 L 79.5625 101.117188 L 100.835938 87.167969 L 100.835938 69.492188 C 102.933594 68.65625 104.417969 66.609375 104.417969 64.21875 " fill-opacity="1" fill-rule="nonzero"/></g><g clip-path="url(#60a1308b00)"><path stroke-linecap="butt" transform="matrix(0.388442, -0.6402, 0.6402, 0.388442, 73.60975, 148.481389)" fill="none" stroke-linejoin="miter" d="M 2.848416 4.702228 C 41.273428 27.967485 79.696028 27.96878 118.120677 4.703407 " stroke="#000000" stroke-width="11" stroke-opacity="1" stroke-miterlimit="4"/></g></svg>